# xmcd
#
# Track frame offsets: 
#        150
#        12900
#        30825
#        45975
#        61953
#        77107
#        90982
#        107107
#        113782
#        129457
#        148432
#        168007
#
# Disc length: 2444 seconds
#
# Revision: 1
# Processed by: cddbd v1.5.2PL0 Copyright (c) Steve Scherf et al.
# Submitted via: ExactAudioCopyFreeDBPlugin 1.0
#
DISCID=8d098a0c
DTITLE=Solonen - Harmaanaaman Kirous
DYEAR=2009
DGENRE=Rap
TTITLE0=Tyylillä
TTITLE1=Jostain Ei Tingitä
TTITLE2=Peilikuva (Hukas Pt.2) (feat. Alamaa)
TTITLE3=Hyvät Puhuu (feat. Eetee)
TTITLE4=Harmaanaaman Kirous
TTITLE5=Tajuu (Itseäsi Enempää)
TTITLE6=Teesse (feat. Asa)
TTITLE7=Vapaat Tyylit
TTITLE8=Rehellinen Rikollinen (feat. Kosola)
TTITLE9=Läski! (feat. Kosola and Alamaa)
TTITLE10=Yhden Päivän Ihminen
TTITLE11=Mekömuka
EXTD=
EXTT0=
EXTT1=
EXTT2=
EXTT3=
EXTT4=
EXTT5=
EXTT6=
EXTT7=
EXTT8=
EXTT9=
EXTT10=
EXTT11=
PLAYORDER=
